<mxfile host="app.diagrams.net" modified="2023-10-21T15:49:11.132Z" agent="Mozilla/5.0 (X11; Ubuntu; Linux x86_64; rv:109.0) Gecko/20100101 Firefox/118.0" etag="RE76ZhXMYqINcIyuLHXE" version="22.0.6" type="github">
  <diagram id="6a731a19-8d31-9384-78a2-239565b7b9f0" name="Page-1">
    <mxGraphModel dx="1475" dy="1019" grid="1" gridSize="10" guides="1" tooltips="1" connect="1" arrows="1" fold="1" page="1" pageScale="1" pageWidth="1169" pageHeight="827" background="none" math="0" shadow="0">
      <root>
        <mxCell id="0" />
        <mxCell id="1" parent="0" />
        <mxCell id="56" value="Project&#xa;" style="strokeColor=#BAC8D3;fillColor=#23445D;fontSize=24;strokeWidth=2;fontFamily=Helvetica;html=1;fontColor=#FFFFFF;fontStyle=0;spacingBottom=8;spacingRight=0;spacingLeft=83;" parent="1" vertex="1">
          <mxGeometry x="154" y="850.5" width="2030" height="80" as="geometry" />
        </mxCell>
        <mxCell id="57" value="Modul QKD-Device" style="strokeColor=#BAC8D3;fillColor=#23445D;fontSize=24;strokeWidth=2;horizontal=0;fontFamily=Helvetica;html=1;fontColor=#FFFFFF;fontStyle=0" parent="1" vertex="1">
          <mxGeometry x="120" y="930.5" width="84" height="399.5" as="geometry" />
        </mxCell>
        <mxCell id="58" value="Lane 1.1" style="strokeColor=#BAC8D3;fillColor=#5d7f99;fontSize=19;strokeWidth=2;horizontal=0;fontFamily=Helvetica;html=1;labelBackgroundColor=none;fontColor=#FFFFFF;" parent="1" vertex="1">
          <mxGeometry x="204" y="930.5" width="40" height="100" as="geometry" />
        </mxCell>
        <mxCell id="59" value="v 1.0" style="strokeColor=#BAC8D3;fillColor=#5d7f99;fontSize=19;strokeWidth=2;fontFamily=Helvetica;html=1;labelBackgroundColor=none;fontColor=#FFFFFF;" parent="1" vertex="1">
          <mxGeometry x="120" y="850.5" width="124" height="80" as="geometry" />
        </mxCell>
        <mxCell id="60" value="Lane 1.2" style="strokeColor=#BAC8D3;fillColor=#5d7f99;fontSize=19;strokeWidth=2;horizontal=0;fontFamily=Helvetica;html=1;labelBackgroundColor=none;fontColor=#FFFFFF;" parent="1" vertex="1">
          <mxGeometry x="204" y="1030.5" width="40" height="100" as="geometry" />
        </mxCell>
        <mxCell id="61" value="Lane 1.3" style="strokeColor=#BAC8D3;fillColor=#5d7f99;fontSize=19;strokeWidth=2;horizontal=0;fontFamily=Helvetica;html=1;labelBackgroundColor=none;fontColor=#FFFFFF;" parent="1" vertex="1">
          <mxGeometry x="204" y="1130.5" width="40" height="100" as="geometry" />
        </mxCell>
        <mxCell id="62" value="Lane 2.2" style="strokeColor=#BAC8D3;fillColor=#5d7f99;fontSize=19;strokeWidth=2;horizontal=0;fontFamily=Helvetica;html=1;labelBackgroundColor=none;fontColor=#FFFFFF;" parent="1" vertex="1">
          <mxGeometry x="204" y="1430.5" width="40" height="100" as="geometry" />
        </mxCell>
        <mxCell id="63" value="Lane 2.1" style="strokeColor=#BAC8D3;fillColor=#5d7f99;fontSize=19;strokeWidth=2;horizontal=0;fontFamily=Helvetica;html=1;labelBackgroundColor=none;fontColor=#FFFFFF;" parent="1" vertex="1">
          <mxGeometry x="204" y="1330.5" width="40" height="100" as="geometry" />
        </mxCell>
        <mxCell id="64" value="Modul &lt;br&gt;QKD-Network" style="strokeColor=#BAC8D3;fillColor=#23445D;fontSize=24;strokeWidth=2;horizontal=0;fontFamily=Helvetica;html=1;fontColor=#FFFFFF;fontStyle=0" parent="1" vertex="1">
          <mxGeometry x="120" y="1330.5" width="84" height="200" as="geometry" />
        </mxCell>
        <mxCell id="65" value="Lane 3.2" style="strokeColor=#BAC8D3;fillColor=#5d7f99;fontSize=19;strokeWidth=2;horizontal=0;fontFamily=Helvetica;html=1;labelBackgroundColor=none;fontColor=#FFFFFF;" parent="1" vertex="1">
          <mxGeometry x="204.33" y="1630.5" width="40" height="100" as="geometry" />
        </mxCell>
        <mxCell id="66" value="Lane 3.1" style="strokeColor=#BAC8D3;fillColor=#5d7f99;fontSize=19;strokeWidth=2;horizontal=0;fontFamily=Helvetica;html=1;labelBackgroundColor=none;fontColor=#FFFFFF;" parent="1" vertex="1">
          <mxGeometry x="204.33" y="1530.5" width="40" height="100" as="geometry" />
        </mxCell>
        <mxCell id="67" value="Modul &lt;br&gt;Inbetriebnahme" style="strokeColor=#BAC8D3;fillColor=#23445D;fontSize=24;strokeWidth=2;horizontal=0;fontFamily=Helvetica;html=1;fontColor=#FFFFFF;fontStyle=0" parent="1" vertex="1">
          <mxGeometry x="120.33" y="1530.5" width="84" height="200" as="geometry" />
        </mxCell>
        <mxCell id="68" value="" style="strokeColor=#FFFFFF;fillColor=#BAC8D3;fontSize=18;strokeWidth=2;fontFamily=Helvetica;html=1;opacity=60;" parent="1" vertex="1">
          <mxGeometry x="244" y="930.5" width="646.6666666666666" height="100" as="geometry" />
        </mxCell>
        <mxCell id="69" value="" style="strokeColor=#FFFFFF;fillColor=#BAC8D3;fontSize=18;strokeWidth=2;fontFamily=Helvetica;html=1;opacity=90;" parent="1" vertex="1">
          <mxGeometry x="244" y="1030.5" width="646.6666666666666" height="100" as="geometry" />
        </mxCell>
        <mxCell id="70" value="" style="strokeColor=#FFFFFF;fillColor=#BAC8D3;fontSize=18;strokeWidth=2;fontFamily=Helvetica;html=1;opacity=60;" parent="1" vertex="1">
          <mxGeometry x="244" y="1130.5" width="646.6666666666666" height="100" as="geometry" />
        </mxCell>
        <mxCell id="71" value="" style="strokeColor=#FFFFFF;fillColor=#BAC8D3;fontSize=18;strokeWidth=2;fontFamily=Helvetica;html=1;opacity=90;" parent="1" vertex="1">
          <mxGeometry x="244" y="1430.5" width="646.6666666666666" height="100" as="geometry" />
        </mxCell>
        <mxCell id="72" value="" style="strokeColor=#FFFFFF;fillColor=#BAC8D3;fontSize=18;strokeWidth=2;fontFamily=Helvetica;html=1;opacity=60;" parent="1" vertex="1">
          <mxGeometry x="244.33" y="1330" width="646.6666666666666" height="100" as="geometry" />
        </mxCell>
        <mxCell id="73" value="" style="strokeColor=#FFFFFF;fillColor=#BAC8D3;fontSize=18;strokeWidth=2;fontFamily=Helvetica;html=1;opacity=90;" parent="1" vertex="1">
          <mxGeometry x="244.33" y="1630.5" width="646.6666666666666" height="100" as="geometry" />
        </mxCell>
        <mxCell id="74" value="" style="strokeColor=#FFFFFF;fillColor=#BAC8D3;fontSize=18;strokeWidth=2;fontFamily=Helvetica;html=1;opacity=60;" parent="1" vertex="1">
          <mxGeometry x="244" y="1530.5" width="646.6666666666666" height="100" as="geometry" />
        </mxCell>
        <mxCell id="75" value="" style="strokeColor=#FFFFFF;fillColor=#BAC8D3;fontSize=18;strokeWidth=2;fontFamily=Helvetica;html=1;opacity=60;" parent="1" vertex="1">
          <mxGeometry x="890.6666666666666" y="930.5" width="647" height="100" as="geometry" />
        </mxCell>
        <mxCell id="76" value="" style="strokeColor=#FFFFFF;fillColor=#BAC8D3;fontSize=18;strokeWidth=2;fontFamily=Helvetica;html=1;opacity=90;" parent="1" vertex="1">
          <mxGeometry x="890.6666666666666" y="1030.5" width="646.6666666666666" height="100" as="geometry" />
        </mxCell>
        <mxCell id="77" value="" style="strokeColor=#FFFFFF;fillColor=#BAC8D3;fontSize=18;strokeWidth=2;fontFamily=Helvetica;html=1;opacity=60;" parent="1" vertex="1">
          <mxGeometry x="890.6666666666666" y="1130.5" width="646.6666666666666" height="100" as="geometry" />
        </mxCell>
        <mxCell id="78" value="" style="strokeColor=#FFFFFF;fillColor=#BAC8D3;fontSize=18;strokeWidth=2;fontFamily=Helvetica;html=1;opacity=90;" parent="1" vertex="1">
          <mxGeometry x="890.6666666666666" y="1430.5" width="646.6666666666666" height="100" as="geometry" />
        </mxCell>
        <mxCell id="79" value="" style="strokeColor=#FFFFFF;fillColor=#BAC8D3;fontSize=18;strokeWidth=2;fontFamily=Helvetica;html=1;opacity=60;" parent="1" vertex="1">
          <mxGeometry x="890.9966666666667" y="1330" width="646.6666666666666" height="100" as="geometry" />
        </mxCell>
        <mxCell id="80" value="" style="strokeColor=#FFFFFF;fillColor=#BAC8D3;fontSize=18;strokeWidth=2;fontFamily=Helvetica;html=1;opacity=90;" parent="1" vertex="1">
          <mxGeometry x="890.9966666666667" y="1630.5" width="646.6666666666666" height="100" as="geometry" />
        </mxCell>
        <mxCell id="81" value="" style="strokeColor=#FFFFFF;fillColor=#BAC8D3;fontSize=18;strokeWidth=2;fontFamily=Helvetica;html=1;opacity=60;fontStyle=4" parent="1" vertex="1">
          <mxGeometry x="890.6666666666666" y="1530.5" width="646.6666666666666" height="100" as="geometry" />
        </mxCell>
        <mxCell id="82" value="" style="strokeColor=#FFFFFF;fillColor=#BAC8D3;fontSize=18;strokeWidth=2;fontFamily=Helvetica;html=1;opacity=60;" parent="1" vertex="1">
          <mxGeometry x="1537.3333333333333" y="930.5" width="647" height="100" as="geometry" />
        </mxCell>
        <mxCell id="83" value="" style="strokeColor=#FFFFFF;fillColor=#BAC8D3;fontSize=18;strokeWidth=2;fontFamily=Helvetica;html=1;opacity=90;" parent="1" vertex="1">
          <mxGeometry x="1537.3333333333333" y="1030.5" width="646.6666666666666" height="100" as="geometry" />
        </mxCell>
        <mxCell id="84" value="" style="strokeColor=#FFFFFF;fillColor=#BAC8D3;fontSize=18;strokeWidth=2;fontFamily=Helvetica;html=1;opacity=60;" parent="1" vertex="1">
          <mxGeometry x="1537.3333333333333" y="1130.5" width="646.6666666666666" height="100" as="geometry" />
        </mxCell>
        <mxCell id="85" value="" style="strokeColor=#FFFFFF;fillColor=#BAC8D3;fontSize=18;strokeWidth=2;fontFamily=Helvetica;html=1;opacity=90;" parent="1" vertex="1">
          <mxGeometry x="1537.3333333333333" y="1430.5" width="646.6666666666666" height="100" as="geometry" />
        </mxCell>
        <mxCell id="86" value="" style="strokeColor=#FFFFFF;fillColor=#BAC8D3;fontSize=18;strokeWidth=2;fontFamily=Helvetica;html=1;opacity=60;" parent="1" vertex="1">
          <mxGeometry x="1537.6633333333332" y="1330" width="646.6666666666666" height="100" as="geometry" />
        </mxCell>
        <mxCell id="87" value="" style="strokeColor=#FFFFFF;fillColor=#BAC8D3;fontSize=18;strokeWidth=2;fontFamily=Helvetica;html=1;opacity=90;" parent="1" vertex="1">
          <mxGeometry x="1537.6633333333332" y="1630.5" width="646.6666666666666" height="100" as="geometry" />
        </mxCell>
        <mxCell id="88" value="" style="strokeColor=#FFFFFF;fillColor=#BAC8D3;fontSize=18;strokeWidth=2;fontFamily=Helvetica;html=1;opacity=60;fontStyle=4" parent="1" vertex="1">
          <mxGeometry x="1537.3333333333333" y="1530.5" width="646.6666666666666" height="100" as="geometry" />
        </mxCell>
        <mxCell id="jt1sfewOlI9wgHk3uNJg-177" value="" style="edgeStyle=orthogonalEdgeStyle;rounded=0;orthogonalLoop=1;jettySize=auto;html=1;" edge="1" parent="1" source="90" target="jt1sfewOlI9wgHk3uNJg-145">
          <mxGeometry relative="1" as="geometry" />
        </mxCell>
        <mxCell id="90" value="&lt;div&gt;&lt;font color=&quot;#f5f5f5&quot;&gt;Evaluierung der&lt;/font&gt;&lt;/div&gt;&lt;div&gt;&lt;font color=&quot;#f5f5f5&quot;&gt;&amp;nbsp;Mikrokontrooler&lt;/font&gt;&lt;/div&gt;" style="rounded=1;fillColor=#23445D;strokeColor=none;strokeWidth=2;fontFamily=Helvetica;html=1;gradientColor=none;" parent="1" vertex="1">
          <mxGeometry x="521.0045578231293" y="952" width="127" height="50" as="geometry" />
        </mxCell>
        <mxCell id="140" value="" style="group" parent="1" vertex="1" connectable="0">
          <mxGeometry x="244" y="890.5" width="646.6666666666666" height="40" as="geometry" />
        </mxCell>
        <mxCell id="141" value="KonzeptionsPhase" style="strokeColor=#BAC8D3;fillColor=#5d7f99;fontSize=19;strokeWidth=2;fontFamily=Helvetica;html=1;labelBackgroundColor=none;fontColor=#FFFFFF;" parent="140" vertex="1">
          <mxGeometry width="646.6656362699642" height="40" as="geometry" />
        </mxCell>
        <mxCell id="142" value="Umsetzungsphase" style="strokeColor=#BAC8D3;fillColor=#5d7f99;fontSize=19;strokeWidth=2;fontFamily=Helvetica;html=1;labelBackgroundColor=none;fontColor=#FFFFFF;" parent="140" vertex="1">
          <mxGeometry x="646.6656362699642" width="646.6656362699642" height="40" as="geometry" />
        </mxCell>
        <mxCell id="143" value="Dokumentation und Abschluss" style="strokeColor=#BAC8D3;fillColor=#5d7f99;fontSize=19;strokeWidth=2;fontFamily=Helvetica;html=1;labelBackgroundColor=none;fontColor=#FFFFFF;" parent="140" vertex="1">
          <mxGeometry x="1293.3312725399282" width="646.6666666666666" height="40" as="geometry" />
        </mxCell>
        <mxCell id="jt1sfewOlI9wgHk3uNJg-176" value="" style="edgeStyle=orthogonalEdgeStyle;rounded=0;orthogonalLoop=1;jettySize=auto;html=1;" edge="1" parent="1" source="jt1sfewOlI9wgHk3uNJg-144" target="90">
          <mxGeometry relative="1" as="geometry" />
        </mxCell>
        <mxCell id="jt1sfewOlI9wgHk3uNJg-144" value="&lt;div&gt;&lt;font color=&quot;#dbdbdb&quot;&gt;Erfassung der Anforderungen&lt;/font&gt;&lt;/div&gt;&lt;div&gt;&lt;font color=&quot;#dbdbdb&quot;&gt;&amp;nbsp;Hard- und Software&lt;/font&gt;&lt;/div&gt;" style="rounded=1;fillColor=#23445D;strokeColor=none;strokeWidth=2;fontFamily=Helvetica;html=1;gradientColor=none;" vertex="1" parent="1">
          <mxGeometry x="260" y="950" width="200" height="52" as="geometry" />
        </mxCell>
        <mxCell id="jt1sfewOlI9wgHk3uNJg-178" style="edgeStyle=orthogonalEdgeStyle;rounded=0;orthogonalLoop=1;jettySize=auto;html=1;" edge="1" parent="1" source="jt1sfewOlI9wgHk3uNJg-145" target="jt1sfewOlI9wgHk3uNJg-146">
          <mxGeometry relative="1" as="geometry" />
        </mxCell>
        <mxCell id="jt1sfewOlI9wgHk3uNJg-145" value="&lt;div&gt;&lt;font color=&quot;#f0f0f0&quot;&gt;Auswahl des&amp;nbsp;&lt;/font&gt;&lt;/div&gt;&lt;div&gt;&lt;font color=&quot;#f0f0f0&quot;&gt;Mikrokontroller&lt;/font&gt;&lt;/div&gt;" style="rounded=1;fillColor=#23445D;strokeColor=none;strokeWidth=2;fontFamily=Helvetica;html=1;gradientColor=none;" vertex="1" parent="1">
          <mxGeometry x="700.0045578231293" y="952" width="127" height="50" as="geometry" />
        </mxCell>
        <mxCell id="jt1sfewOlI9wgHk3uNJg-179" style="edgeStyle=orthogonalEdgeStyle;rounded=0;orthogonalLoop=1;jettySize=auto;html=1;" edge="1" parent="1" source="jt1sfewOlI9wgHk3uNJg-146" target="jt1sfewOlI9wgHk3uNJg-164">
          <mxGeometry relative="1" as="geometry" />
        </mxCell>
        <mxCell id="jt1sfewOlI9wgHk3uNJg-146" value="&lt;div&gt;&lt;font color=&quot;#fcfcfc&quot;&gt;Auswahl des&amp;nbsp;&lt;/font&gt;&lt;/div&gt;&lt;div&gt;&lt;font color=&quot;#fcfcfc&quot;&gt;Kameramoduls&lt;/font&gt;&lt;/div&gt;" style="rounded=1;fillColor=#23445D;strokeColor=none;strokeWidth=2;fontFamily=Helvetica;html=1;gradientColor=none;" vertex="1" parent="1">
          <mxGeometry x="610.0045578231293" y="1050" width="127" height="50" as="geometry" />
        </mxCell>
        <mxCell id="jt1sfewOlI9wgHk3uNJg-147" value="&lt;div&gt;&lt;font&gt;Einbau des&lt;/font&gt;&lt;/div&gt;&lt;div&gt;&lt;font&gt;&amp;nbsp;Kamera Moduls&lt;/font&gt;&lt;/div&gt;" style="rounded=1;fillColor=#23445D;strokeColor=none;strokeWidth=2;fontFamily=Helvetica;html=1;gradientColor=none;fontColor=#FFFFFF;" vertex="1" parent="1">
          <mxGeometry x="900.0045578231293" y="1050" width="127" height="50" as="geometry" />
        </mxCell>
        <mxCell id="jt1sfewOlI9wgHk3uNJg-153" value="" style="strokeColor=#FFFFFF;fillColor=#BAC8D3;fontSize=18;strokeWidth=2;fontFamily=Helvetica;html=1;opacity=90;" vertex="1" parent="1">
          <mxGeometry x="890.9966666666667" y="1230.5" width="646.6666666666666" height="100" as="geometry" />
        </mxCell>
        <mxCell id="jt1sfewOlI9wgHk3uNJg-183" style="edgeStyle=orthogonalEdgeStyle;rounded=0;orthogonalLoop=1;jettySize=auto;html=1;" edge="1" parent="1" source="jt1sfewOlI9wgHk3uNJg-147" target="jt1sfewOlI9wgHk3uNJg-168">
          <mxGeometry relative="1" as="geometry" />
        </mxCell>
        <mxCell id="jt1sfewOlI9wgHk3uNJg-152" value="" style="strokeColor=#FFFFFF;fillColor=#BAC8D3;fontSize=18;strokeWidth=2;fontFamily=Helvetica;html=1;opacity=90;" vertex="1" parent="1">
          <mxGeometry x="244.33" y="1230.5" width="646.6666666666666" height="100" as="geometry" />
        </mxCell>
        <mxCell id="jt1sfewOlI9wgHk3uNJg-154" value="&lt;div&gt;Lane 1.4&lt;/div&gt;" style="strokeColor=#BAC8D3;fillColor=#5d7f99;fontSize=19;strokeWidth=2;horizontal=0;fontFamily=Helvetica;html=1;labelBackgroundColor=none;fontColor=#FFFFFF;" vertex="1" parent="1">
          <mxGeometry x="204" y="1230.5" width="40" height="100" as="geometry" />
        </mxCell>
        <mxCell id="jt1sfewOlI9wgHk3uNJg-155" value="" style="strokeColor=#FFFFFF;fillColor=#BAC8D3;fontSize=18;strokeWidth=2;fontFamily=Helvetica;html=1;opacity=90;" vertex="1" parent="1">
          <mxGeometry x="1537.6666666666667" y="1230" width="646.6666666666666" height="100" as="geometry" />
        </mxCell>
        <mxCell id="jt1sfewOlI9wgHk3uNJg-157" value="September 2023" style="strokeColor=#BAC8D3;fillColor=#5d7f99;fontSize=19;strokeWidth=2;fontFamily=Helvetica;html=1;labelBackgroundColor=none;fontColor=#FFFFFF;" vertex="1" parent="1">
          <mxGeometry x="244" y="1740" width="426" height="40" as="geometry" />
        </mxCell>
        <mxCell id="jt1sfewOlI9wgHk3uNJg-160" value="Oktober 2023" style="strokeColor=#BAC8D3;fillColor=#5d7f99;fontSize=19;strokeWidth=2;fontFamily=Helvetica;html=1;labelBackgroundColor=none;fontColor=#FFFFFF;" vertex="1" parent="1">
          <mxGeometry x="680" y="1740" width="514.33" height="40" as="geometry" />
        </mxCell>
        <mxCell id="jt1sfewOlI9wgHk3uNJg-162" value="November 2023" style="strokeColor=#BAC8D3;fillColor=#5d7f99;fontSize=19;strokeWidth=2;fontFamily=Helvetica;html=1;labelBackgroundColor=none;fontColor=#FFFFFF;" vertex="1" parent="1">
          <mxGeometry x="1210" y="1740" width="530" height="40" as="geometry" />
        </mxCell>
        <mxCell id="jt1sfewOlI9wgHk3uNJg-163" value="Dezember 2023" style="strokeColor=#BAC8D3;fillColor=#5d7f99;fontSize=19;strokeWidth=2;fontFamily=Helvetica;html=1;labelBackgroundColor=none;fontColor=#FFFFFF;" vertex="1" parent="1">
          <mxGeometry x="1750" y="1740" width="430" height="40" as="geometry" />
        </mxCell>
        <mxCell id="jt1sfewOlI9wgHk3uNJg-180" style="edgeStyle=orthogonalEdgeStyle;rounded=0;orthogonalLoop=1;jettySize=auto;html=1;" edge="1" parent="1" source="jt1sfewOlI9wgHk3uNJg-164" target="jt1sfewOlI9wgHk3uNJg-165">
          <mxGeometry relative="1" as="geometry" />
        </mxCell>
        <mxCell id="jt1sfewOlI9wgHk3uNJg-164" value="&lt;div&gt;Erfassung Gehäuse&amp;nbsp;&lt;/div&gt;&lt;div&gt;Dimensionen&lt;/div&gt;" style="rounded=1;fillColor=#23445D;strokeColor=none;strokeWidth=2;fontFamily=Helvetica;html=1;gradientColor=none;fontColor=#FFFFFF;" vertex="1" parent="1">
          <mxGeometry x="620.0045578231293" y="1150" width="127" height="50" as="geometry" />
        </mxCell>
        <mxCell id="jt1sfewOlI9wgHk3uNJg-181" style="edgeStyle=orthogonalEdgeStyle;rounded=0;orthogonalLoop=1;jettySize=auto;html=1;entryX=0;entryY=0.5;entryDx=0;entryDy=0;" edge="1" parent="1" source="jt1sfewOlI9wgHk3uNJg-165" target="jt1sfewOlI9wgHk3uNJg-147">
          <mxGeometry relative="1" as="geometry" />
        </mxCell>
        <mxCell id="jt1sfewOlI9wgHk3uNJg-165" value="Auswahl Gehäuse" style="rounded=1;fillColor=#23445D;strokeColor=none;strokeWidth=2;fontFamily=Helvetica;html=1;gradientColor=none;fontColor=#FFFFFF;" vertex="1" parent="1">
          <mxGeometry x="800.0045578231293" y="1150" width="127" height="50" as="geometry" />
        </mxCell>
        <mxCell id="jt1sfewOlI9wgHk3uNJg-185" style="edgeStyle=orthogonalEdgeStyle;rounded=0;orthogonalLoop=1;jettySize=auto;html=1;" edge="1" parent="1" source="jt1sfewOlI9wgHk3uNJg-167" target="jt1sfewOlI9wgHk3uNJg-173">
          <mxGeometry relative="1" as="geometry" />
        </mxCell>
        <mxCell id="jt1sfewOlI9wgHk3uNJg-188" style="edgeStyle=orthogonalEdgeStyle;rounded=0;orthogonalLoop=1;jettySize=auto;html=1;" edge="1" parent="1" source="jt1sfewOlI9wgHk3uNJg-167" target="jt1sfewOlI9wgHk3uNJg-171">
          <mxGeometry relative="1" as="geometry" />
        </mxCell>
        <mxCell id="jt1sfewOlI9wgHk3uNJg-167" value="&lt;div&gt;Installation Software&lt;/div&gt;&lt;div&gt;KD-Device&lt;/div&gt;" style="rounded=1;fillColor=#23445D;strokeColor=none;strokeWidth=2;fontFamily=Helvetica;html=1;gradientColor=none;fontColor=#FFFFFF;" vertex="1" parent="1">
          <mxGeometry x="1080.0045578231293" y="1255.5" width="127" height="50" as="geometry" />
        </mxCell>
        <mxCell id="jt1sfewOlI9wgHk3uNJg-186" style="edgeStyle=orthogonalEdgeStyle;rounded=0;orthogonalLoop=1;jettySize=auto;html=1;" edge="1" parent="1" source="jt1sfewOlI9wgHk3uNJg-169" target="jt1sfewOlI9wgHk3uNJg-170">
          <mxGeometry relative="1" as="geometry" />
        </mxCell>
        <mxCell id="jt1sfewOlI9wgHk3uNJg-169" value="Auswahl QKD Dienst" style="rounded=1;fillColor=#23445D;strokeColor=none;strokeWidth=2;fontFamily=Helvetica;html=1;gradientColor=none;fontColor=#FFFFFF;" vertex="1" parent="1">
          <mxGeometry x="620.0045578231294" y="1355.5" width="127" height="50" as="geometry" />
        </mxCell>
        <mxCell id="jt1sfewOlI9wgHk3uNJg-184" style="edgeStyle=orthogonalEdgeStyle;rounded=0;orthogonalLoop=1;jettySize=auto;html=1;" edge="1" parent="1" source="jt1sfewOlI9wgHk3uNJg-168" target="jt1sfewOlI9wgHk3uNJg-167">
          <mxGeometry relative="1" as="geometry" />
        </mxCell>
        <mxCell id="jt1sfewOlI9wgHk3uNJg-168" value="&lt;div&gt;Entwicklung Software&lt;/div&gt;&lt;div&gt;QKD-Device&lt;br&gt;&lt;/div&gt;" style="rounded=1;fillColor=#23445D;strokeColor=none;strokeWidth=2;fontFamily=Helvetica;html=1;gradientColor=none;fontColor=#FFFFFF;" vertex="1" parent="1">
          <mxGeometry x="900.0045578231293" y="1255" width="127" height="50" as="geometry" />
        </mxCell>
        <mxCell id="jt1sfewOlI9wgHk3uNJg-187" style="edgeStyle=orthogonalEdgeStyle;rounded=0;orthogonalLoop=1;jettySize=auto;html=1;entryX=0;entryY=0.5;entryDx=0;entryDy=0;" edge="1" parent="1" source="jt1sfewOlI9wgHk3uNJg-170" target="jt1sfewOlI9wgHk3uNJg-171">
          <mxGeometry relative="1" as="geometry" />
        </mxCell>
        <mxCell id="jt1sfewOlI9wgHk3uNJg-170" value="&lt;div&gt;Isntallation QKN- Software&lt;/div&gt;&lt;div&gt;in&amp;nbsp; Testumgebung&lt;br&gt;&lt;/div&gt;" style="rounded=1;fillColor=#23445D;strokeColor=none;strokeWidth=2;fontFamily=Helvetica;html=1;gradientColor=none;fontColor=#FFFFFF;" vertex="1" parent="1">
          <mxGeometry x="900" y="1355.5" width="150" height="50" as="geometry" />
        </mxCell>
        <mxCell id="jt1sfewOlI9wgHk3uNJg-190" style="edgeStyle=orthogonalEdgeStyle;rounded=0;orthogonalLoop=1;jettySize=auto;html=1;entryX=0;entryY=0.5;entryDx=0;entryDy=0;" edge="1" parent="1" source="jt1sfewOlI9wgHk3uNJg-171" target="jt1sfewOlI9wgHk3uNJg-172">
          <mxGeometry relative="1" as="geometry" />
        </mxCell>
        <mxCell id="jt1sfewOlI9wgHk3uNJg-171" value="&lt;div&gt;Integration&lt;/div&gt;&lt;div&gt;&amp;nbsp;der Schnittstellen&lt;/div&gt;" style="rounded=1;fillColor=#23445D;strokeColor=none;strokeWidth=2;fontFamily=Helvetica;html=1;gradientColor=none;fontColor=#FFFFFF;" vertex="1" parent="1">
          <mxGeometry x="1240.0045578231293" y="1455.5" width="127" height="50" as="geometry" />
        </mxCell>
        <mxCell id="jt1sfewOlI9wgHk3uNJg-191" style="edgeStyle=orthogonalEdgeStyle;rounded=0;orthogonalLoop=1;jettySize=auto;html=1;" edge="1" parent="1" source="jt1sfewOlI9wgHk3uNJg-172" target="jt1sfewOlI9wgHk3uNJg-174">
          <mxGeometry relative="1" as="geometry" />
        </mxCell>
        <mxCell id="jt1sfewOlI9wgHk3uNJg-172" value="Inbetriebnahme" style="rounded=1;fillColor=#23445D;strokeColor=none;strokeWidth=2;fontFamily=Helvetica;html=1;gradientColor=none;fontColor=#FFFFFF;" vertex="1" parent="1">
          <mxGeometry x="1380.0045578231293" y="1550" width="127" height="50" as="geometry" />
        </mxCell>
        <mxCell id="jt1sfewOlI9wgHk3uNJg-189" style="edgeStyle=orthogonalEdgeStyle;rounded=0;orthogonalLoop=1;jettySize=auto;html=1;" edge="1" parent="1" source="jt1sfewOlI9wgHk3uNJg-173" target="jt1sfewOlI9wgHk3uNJg-172">
          <mxGeometry relative="1" as="geometry" />
        </mxCell>
        <mxCell id="jt1sfewOlI9wgHk3uNJg-173" value="&lt;div&gt;Zusammenbau der Hardware&lt;/div&gt;&lt;div&gt;&amp;nbsp;Komponenten&lt;br&gt;&lt;/div&gt;" style="rounded=1;fillColor=#23445D;strokeColor=none;strokeWidth=2;fontFamily=Helvetica;html=1;gradientColor=none;fontColor=#FFFFFF;" vertex="1" parent="1">
          <mxGeometry x="1320" y="1255.5" width="170" height="50" as="geometry" />
        </mxCell>
        <mxCell id="jt1sfewOlI9wgHk3uNJg-192" style="edgeStyle=orthogonalEdgeStyle;rounded=0;orthogonalLoop=1;jettySize=auto;html=1;" edge="1" parent="1" source="jt1sfewOlI9wgHk3uNJg-174" target="jt1sfewOlI9wgHk3uNJg-175">
          <mxGeometry relative="1" as="geometry" />
        </mxCell>
        <mxCell id="jt1sfewOlI9wgHk3uNJg-174" value="Test" style="rounded=1;fillColor=#23445D;strokeColor=none;strokeWidth=2;fontFamily=Helvetica;html=1;gradientColor=none;fontColor=#FFFFFF;" vertex="1" parent="1">
          <mxGeometry x="1550.0045578231293" y="1660" width="127" height="50" as="geometry" />
        </mxCell>
        <mxCell id="jt1sfewOlI9wgHk3uNJg-175" value="Dokumentation" style="rounded=1;fillColor=#23445D;strokeColor=none;strokeWidth=2;fontFamily=Helvetica;html=1;gradientColor=none;fontColor=#FFFFFF;" vertex="1" parent="1">
          <mxGeometry x="1790.0045578231293" y="1660" width="127" height="50" as="geometry" />
        </mxCell>
      </root>
    </mxGraphModel>
  </diagram>
</mxfile>
